<svg xmlns="http://www.w3.org/2000/svg" width="342.7641" height="191.3416" viewBox="0 0 342.7641 191.3416"><defs><style>.\31 beb4a2f-8317-4853-81a7-a77d3ea6d66b{fill:#fff;}</style></defs><title>cocopuff</title><g id="42482757-0225-45b6-a126-15240095d2ca" data-name="Слой 2"><g id="657014c4-3399-4c3f-bfaa-e8e87d5c4319" data-name="Слой 1"><path class="1beb4a2f-8317-4853-81a7-a77d3ea6d66b" d="M290.2841,47.4515a2.6037,2.6037,0,0,1,1.32-2.28l10.35-5.97c-117.83-50.16-180.56-43.12-212.48-28.31-28.19,13.09-36.3,33.86-37.25,36.56.96,2.7,9.06,23.46,37.25,36.55,31.91,14.81,94.63,21.86,212.46-28.3l-10.33-5.97A2.6046,2.6046,0,0,1,290.2841,47.4515Zm-160.77,24.13a34.0847,34.0847,0,1,1-22.11-60.08h1v1a17.0094,17.0094,0,0,0,16.98,16.96,16.7579,16.7579,0,0,0,9.21-2.79l.83-.55.55.84a34,34,0,0,1-6.46,44.62Z"/><path class="1beb4a2f-8317-4853-81a7-a77d3ea6d66b" d="M96.6337,134.3716a22.406,22.406,0,0,0-4.61-7.23,21.544,21.544,0,0,0-6.86-4.83,20.5585,20.5585,0,0,0-8.54-1.76,20.8909,20.8909,0,0,0-8.59,1.76,21.4256,21.4256,0,0,0-6.91,4.83,23.0293,23.0293,0,0,0-4.65,7.23.0763.0763,0,0,1-.01.03,14.1387,14.1387,0,0,0-.59,1.65c-.01.02-.02.05-.03.07a29.5543,29.5543,0,0,1-11.6,14c-.08.05-.1616.0975-.24.15-.5062.3375-.935.6575-1.37.94a.14.14,0,0,0-.04.03,28.56,28.56,0,0,1-5.14,2.65,21.6064,21.6064,0,0,1-7.27,1.35,17.1914,17.1914,0,0,1-7.5-1.58,16.5693,16.5693,0,0,1-5.7-4.38,20.7879,20.7879,0,0,1-3.66-6.64,27.5717,27.5717,0,0,1-1.4-8.36,22.66,22.66,0,0,1,1.2705-8.13,20.8472,20.8472,0,0,1,3.79-6.64,18.4688,18.4688,0,0,1,5.74-4.52,15.7055,15.7055,0,0,1,7.18-1.67,17.8589,17.8589,0,0,1,5.88.81,22.7075,22.7075,0,0,1,4.97,2.17,1.9408,1.9408,0,0,0,1.26.27,1.417,1.417,0,0,0,1-.63l4.42-6.24a1.7854,1.7854,0,0,0,.36-1.31,1.6486,1.6486,0,0,0-.72-1.13,26.4392,26.4392,0,0,0-8.81-4.33,32.7841,32.7841,0,0,0-9.08-1.09,26.2877,26.2877,0,0,0-12.2,2.8,29.2006,29.2006,0,0,0-9.21,7.41,33.7984,33.7984,0,0,0-5.83,10.44,34.3846,34.3846,0,0,0-1.94,11.97,40.4706,40.4706,0,0,0,2.21,13.19,29.7923,29.7923,0,0,0,6.05,10.26,26.3633,26.3633,0,0,0,9.49,6.59,31.295,31.295,0,0,0,12.52,2.22,30.51,30.51,0,0,0,10.48-1.72,37.159,37.159,0,0,0,9.67-5.51s.06-.05.18-.15c.77-.62,3.84-3.15,6.52-5.52a22.283,22.283,0,0,0,3.91,5.67,21.4229,21.4229,0,0,0,6.91,4.83,21.8181,21.8181,0,0,0,17.17,0,21.4262,21.4262,0,0,0,6.91-4.83,22.4028,22.4028,0,0,0,4.61-7.23,24.7852,24.7852,0,0,0,0-17.89Zm-9.98,13.69a12.1121,12.1121,0,0,1-2.26,3.84,10.62,10.62,0,0,1-3.48,2.57,10.1478,10.1478,0,0,1-4.38.95,9.8159,9.8159,0,0,1-4.34-.95,10.6264,10.6264,0,0,1-3.43-2.57,11.7413,11.7413,0,0,1-2.26-3.84,14.1419,14.1419,0,0,1,0-9.49,11.8432,11.8432,0,0,1,2.26-3.84,10.6252,10.6252,0,0,1,3.43-2.57,9.8144,9.8144,0,0,1,4.34-.95,10.1462,10.1462,0,0,1,4.38.95,10.6184,10.6184,0,0,1,3.48,2.57,12.2207,12.2207,0,0,1,2.26,3.84,14.31,14.31,0,0,1,0,9.49Z"/><path class="1beb4a2f-8317-4853-81a7-a77d3ea6d66b" d="M186.0839,134.3716a22.406,22.406,0,0,0-4.61-7.23,21.4426,21.4426,0,0,0-6.86-4.83,20.56,20.56,0,0,0-8.54-1.76,20.8915,20.8915,0,0,0-8.59,1.76,21.4289,21.4289,0,0,0-6.91,4.83,22.3428,22.3428,0,0,0-3.23,4.34l-.06.12a18.6781,18.6781,0,0,0-.89,1.72c-.01.02-.02.03-.03.05a82.571,82.571,0,0,1-13.99,18.62,9.526,9.526,0,0,1-3.3,2.53,9.6933,9.6933,0,0,1-4.11.9,11.0311,11.0311,0,0,1-4.43-.9,10.4518,10.4518,0,0,1-3.57-2.53,12.156,12.156,0,0,1-2.35-3.8,12.6507,12.6507,0,0,1-.86-4.69,14.1987,14.1987,0,0,1,.77-4.66,11.84,11.84,0,0,1,2.17-3.84,10.3841,10.3841,0,0,1,3.34-2.57,10.4084,10.4084,0,0,1,7.91-.32,13.0084,13.0084,0,0,1,2.98,1.63,1.7978,1.7978,0,0,0,1.31.36,1.6289,1.6289,0,0,0,1.13-.72l4.07-6.42a1.4224,1.4224,0,0,0,.27-1.26,1.7171,1.7171,0,0,0-.73-1,21.5918,21.5918,0,0,0-12.55-4.15,20.1906,20.1906,0,0,0-8.72,2.03,22.6614,22.6614,0,0,0-11.3,12.38,24.452,24.452,0,0,0,.09,17.53,22.2994,22.2994,0,0,0,4.66,7.18,20.5634,20.5634,0,0,0,7,4.74,22.3591,22.3591,0,0,0,8.72,1.67,19.7321,19.7321,0,0,0,8.4-1.8,21.9921,21.9921,0,0,0,6.78-4.88l.03-.03a78.9922,78.9922,0,0,0,5.85-6.97,22.342,22.342,0,0,0,4.55,7.09,21.4337,21.4337,0,0,0,6.91,4.83,21.8181,21.8181,0,0,0,17.17,0,21.324,21.324,0,0,0,6.91-4.83,22.4028,22.4028,0,0,0,4.61-7.23,24.7921,24.7921,0,0,0,0-17.89Zm-9.98,13.69a11.9227,11.9227,0,0,1-2.26,3.84,10.62,10.62,0,0,1-3.48,2.57,10.1516,10.1516,0,0,1-4.38.95,9.8489,9.8489,0,0,1-4.34-.95,10.737,10.737,0,0,1-3.43-2.57,11.749,11.749,0,0,1-2.26-3.84,14.3015,14.3015,0,0,1,0-9.49,11.8509,11.8509,0,0,1,2.26-3.84,10.7358,10.7358,0,0,1,3.43-2.57,9.8474,9.8474,0,0,1,4.34-.95,10.15,10.15,0,0,1,4.38.95,10.6184,10.6184,0,0,1,3.48,2.57,12.0278,12.0278,0,0,1,2.26,3.84,14.3015,14.3015,0,0,1,0,9.49Z"/><path class="1beb4a2f-8317-4853-81a7-a77d3ea6d66b" d="M234.474,134.2317a22.6662,22.6662,0,0,0-4.47-7.18,20.2783,20.2783,0,0,0-6.73-4.79,20.8409,20.8409,0,0,0-8.49-1.71,15.9579,15.9579,0,0,0-6.28,1.4,30.6588,30.6588,0,0,0-5.83,3.2v-4.42h-10.39v59.83l10.39,10.78v-29.86a24.4681,24.4681,0,0,0,5.65,3.29,15.7605,15.7605,0,0,0,6.19,1.31,21.0674,21.0674,0,0,0,8.67-1.76,20.7563,20.7563,0,0,0,6.82-4.79,21.7894,21.7894,0,0,0,4.47-7.22,24.8789,24.8789,0,0,0,1.63-9.09A24.1569,24.1569,0,0,0,234.474,134.2317Zm-10.02,13.74a11.9051,11.9051,0,0,1-2.31,3.88,10.7208,10.7208,0,0,1-3.48,2.62,9.8051,9.8051,0,0,1-4.33.95,10.5855,10.5855,0,0,1-4.57-.95,11.0994,11.0994,0,0,1-3.52-2.57,11.5149,11.5149,0,0,1-2.31-3.84,13.7194,13.7194,0,0,1-.81-4.74,13.2928,13.2928,0,0,1,.81-4.7,11.0121,11.0121,0,0,1,2.31-3.75,10.8751,10.8751,0,0,1,3.52-2.49,11.1906,11.1906,0,0,1,4.57-.9,10.1511,10.1511,0,0,1,7.9,3.34,12.04,12.04,0,0,1,3.03,8.4A13.7364,13.7364,0,0,1,224.454,147.9715Z"/><path class="1beb4a2f-8317-4853-81a7-a77d3ea6d66b" d="M278.2538,121.5816v20.38a36.4356,36.4356,0,0,1-1.59,11.84,18.6943,18.6943,0,0,1-4.56,7.41,16.19,16.19,0,0,1-5.56,3.61,19.452,19.452,0,0,1-7.18,1.26q-8.49,0-13.37-4.96a17.0154,17.0154,0,0,1-4.02-6.96,40.1089,40.1089,0,0,1-1.4-11.93v-20.65h10.48v22.46a19.2552,19.2552,0,0,0,.68,5.69,6.8271,6.8271,0,0,0,1.94,3.25,7.8583,7.8583,0,0,0,5.69,2.17,9.5579,9.5579,0,0,0,3.34-.59,7.7286,7.7286,0,0,0,2.9-1.85,7.1022,7.1022,0,0,0,1.58-3.16,21.6631,21.6631,0,0,0,.58-5.51v-22.46Z"/><path class="1beb4a2f-8317-4853-81a7-a77d3ea6d66b" d="M299.3939,121.5816h9.21v9.18h-9.21v34.41h-10.48v-34.41h-7.46v-9.18h7.46v-7q0-7.41,3.75-11.92,3.75-4.53,11.52-4.52a19.02,19.02,0,0,1,5.28.68,22.2443,22.2443,0,0,1,3.34,1.25l-5.92,9.28c-.01,0-.03-.01-.04-.01a9.3508,9.3508,0,0,0-2.66-.36,3.9733,3.9733,0,0,0-3.71,1.81,8.6665,8.6665,0,0,0-1.08,4.52Z"/><path class="1beb4a2f-8317-4853-81a7-a77d3ea6d66b" d="M329.4838,121.5816h9.21v9.21h-9.21v34.38h-10.49v-34.41h-7.33v-9.18h7.33v-7q0-7.41,3.75-11.92,3.75-4.53,11.52-4.52a19.0948,19.0948,0,0,1,5.29.68,21.1572,21.1572,0,0,1,3.21,1.19l-5.93,9.3a9.46,9.46,0,0,0-2.57-.33,3.9567,3.9567,0,0,0-3.7,1.81,8.67,8.67,0,0,0-1.08,4.52Z"/></g></g></svg>