<svg id="8eae0a5e-7855-46b4-b32e-f55a182b1dba" data-name="Слой 1" xmlns="http://www.w3.org/2000/svg" width="43.3233mm" height="43.3233mm" viewBox="0 0 122.8063 122.8063"><defs><style>.\37 089307a-40fe-4da5-9a8e-f3fa3fe32c8e{fill:#0061ff;}</style></defs><title>minicoco</title><path class="7089307a-40fe-4da5-9a8e-f3fa3fe32c8e" d="M108.8848,34.5823a22.406,22.406,0,0,0-4.61-7.23,21.5458,21.5458,0,0,0-6.86-4.83,20.56,20.56,0,0,0-8.54-1.76,20.8925,20.8925,0,0,0-8.59,1.76,21.4274,21.4274,0,0,0-6.91,4.83,23.0293,23.0293,0,0,0-4.65,7.23.0763.0763,0,0,1-.01.03,14.1438,14.1438,0,0,0-.59,1.65c-.01.02-.02.05-.03.07a29.5543,29.5543,0,0,1-11.6,14c-.08.05-.1616.0975-.24.15-.5062.3374-.935.6575-1.37.94a.14.14,0,0,0-.04.03,28.56,28.56,0,0,1-5.14,2.65,21.6064,21.6064,0,0,1-7.27,1.35,17.19,17.19,0,0,1-7.5-1.58,16.5678,16.5678,0,0,1-5.7-4.38,20.79,20.79,0,0,1-3.66-6.64,27.5717,27.5717,0,0,1-1.4-8.36,22.66,22.66,0,0,1,1.27-8.13,20.8472,20.8472,0,0,1,3.79-6.64,18.4688,18.4688,0,0,1,5.74-4.52,15.7055,15.7055,0,0,1,7.18-1.67,17.8589,17.8589,0,0,1,5.88.81,22.7123,22.7123,0,0,1,4.97,2.17,1.94,1.94,0,0,0,1.26.27,1.4173,1.4173,0,0,0,1-.63l4.42-6.24a1.785,1.785,0,0,0,.36-1.31,1.6486,1.6486,0,0,0-.72-1.13,26.4373,26.4373,0,0,0-8.81-4.33,32.7841,32.7841,0,0,0-9.08-1.09,26.2877,26.2877,0,0,0-12.2,2.8,29.2016,29.2016,0,0,0-9.21,7.41,33.8,33.8,0,0,0-5.83,10.44,34.3846,34.3846,0,0,0-1.94,11.97,40.4706,40.4706,0,0,0,2.21,13.19,29.7919,29.7919,0,0,0,6.05,10.26,26.3623,26.3623,0,0,0,9.49,6.59,31.295,31.295,0,0,0,12.52,2.22,30.51,30.51,0,0,0,10.48-1.72,37.159,37.159,0,0,0,9.67-5.51s.06-.05.18-.15c.77-.62,3.84-3.15,6.52-5.52a22.283,22.283,0,0,0,3.91,5.67,21.4229,21.4229,0,0,0,6.91,4.83,21.8181,21.8181,0,0,0,17.17,0,21.4262,21.4262,0,0,0,6.91-4.83,22.4028,22.4028,0,0,0,4.61-7.23,24.7852,24.7852,0,0,0,0-17.89Zm-9.98,13.69a12.1126,12.1126,0,0,1-2.26,3.84,10.62,10.62,0,0,1-3.48,2.57,10.1478,10.1478,0,0,1-4.38.95,9.8159,9.8159,0,0,1-4.34-.95,10.6264,10.6264,0,0,1-3.43-2.57,11.7418,11.7418,0,0,1-2.26-3.84,14.1416,14.1416,0,0,1,0-9.49,11.8432,11.8432,0,0,1,2.26-3.84,10.627,10.627,0,0,1,3.43-2.57,9.8158,9.8158,0,0,1,4.34-.95,10.1476,10.1476,0,0,1,4.38.95,10.62,10.62,0,0,1,3.48,2.57,12.2207,12.2207,0,0,1,2.26,3.84,14.31,14.31,0,0,1,0,9.49Z"/><path class="7089307a-40fe-4da5-9a8e-f3fa3fe32c8e" d="M102.1981,89.0505a22.406,22.406,0,0,0-4.61-7.23,21.4437,21.4437,0,0,0-6.86-4.83,20.5609,20.5609,0,0,0-8.54-1.76,20.8931,20.8931,0,0,0-8.59,1.76,21.4307,21.4307,0,0,0-6.91,4.83,22.3428,22.3428,0,0,0-3.23,4.34l-.06.12a18.6653,18.6653,0,0,0-.89,1.72c-.01.02-.02.03-.03.05a82.5666,82.5666,0,0,1-13.99,18.62,9.5282,9.5282,0,0,1-3.3,2.53,9.6932,9.6932,0,0,1-4.11.9,11.0311,11.0311,0,0,1-4.43-.9,10.4531,10.4531,0,0,1-3.57-2.53,12.1592,12.1592,0,0,1-2.35-3.8,12.6526,12.6526,0,0,1-.86-4.69,14.196,14.196,0,0,1,.77-4.66,11.8377,11.8377,0,0,1,2.17-3.84,10.3813,10.3813,0,0,1,3.34-2.57,10.4084,10.4084,0,0,1,7.91-.32,13.0084,13.0084,0,0,1,2.98,1.63,1.7982,1.7982,0,0,0,1.31.36,1.6288,1.6288,0,0,0,1.13-.72l4.07-6.42a1.4225,1.4225,0,0,0,.27-1.26,1.7177,1.7177,0,0,0-.73-1,21.5925,21.5925,0,0,0-12.55-4.15,20.192,20.192,0,0,0-8.72,2.03,22.6614,22.6614,0,0,0-11.3,12.38,24.452,24.452,0,0,0,.09,17.53,22.2962,22.2962,0,0,0,4.66,7.18,20.5619,20.5619,0,0,0,7,4.74,22.3574,22.3574,0,0,0,8.72,1.67,19.7321,19.7321,0,0,0,8.4-1.8,21.9949,21.9949,0,0,0,6.78-4.88l.03-.03a79.01,79.01,0,0,0,5.85-6.97,22.342,22.342,0,0,0,4.55,7.09,21.4337,21.4337,0,0,0,6.91,4.83,21.8181,21.8181,0,0,0,17.17,0,21.324,21.324,0,0,0,6.91-4.83,22.4028,22.4028,0,0,0,4.61-7.23,24.7921,24.7921,0,0,0,0-17.89Zm-9.98,13.69a11.9232,11.9232,0,0,1-2.26,3.84,10.6189,10.6189,0,0,1-3.48,2.57,10.1508,10.1508,0,0,1-4.38.95,9.8488,9.8488,0,0,1-4.34-.95,10.737,10.737,0,0,1-3.43-2.57,11.7494,11.7494,0,0,1-2.26-3.84,14.3012,14.3012,0,0,1,0-9.49,11.8509,11.8509,0,0,1,2.26-3.84,10.7376,10.7376,0,0,1,3.43-2.57,9.8487,9.8487,0,0,1,4.34-.95,10.1506,10.1506,0,0,1,4.38.95,10.6194,10.6194,0,0,1,3.48,2.57,12.0278,12.0278,0,0,1,2.26,3.84,14.3012,14.3012,0,0,1,0,9.49Z"/></svg>